<svg width="187" height="62" viewBox="0 0 187 62" fill="none" xmlns="http://www.w3.org/2000/svg">
<g clip-path="url(#clip0_6_14)">
<path d="M13.1094 61.1939C12.6315 61.1939 12.1652 61.1877 11.691 61.1771C10.7087 61.1643 9.72879 61.0788 8.75916 60.9212C7.85504 60.7655 6.97918 60.4759 6.16049 60.0618C5.3493 59.6512 4.60944 59.1128 3.96923 58.4673C3.31976 57.8293 2.77905 57.0894 2.36852 56.2768C1.95346 55.4589 1.66622 54.5823 1.51679 53.6774C1.35543 52.7051 1.26812 51.7219 1.25563 50.7364C1.24568 50.4056 1.23267 49.3041 1.23267 49.3041V13.0699C1.23267 13.0699 1.24653 11.9853 1.25571 11.6667C1.26767 10.6828 1.35447 9.70113 1.51535 8.73032C1.66505 7.82295 1.95252 6.94378 2.3678 6.12324C2.77682 5.31123 3.31453 4.57074 3.96009 3.93049C4.60492 3.28416 5.34716 2.74298 6.15972 2.3267C6.97653 1.91399 7.85073 1.62638 8.75303 1.47351C9.72584 1.31441 10.7092 1.22839 11.6949 1.21617L13.1102 1.19702H174.307L175.739 1.21694C176.716 1.22855 177.691 1.3138 178.654 1.47197C179.566 1.62676 180.449 1.91638 181.275 2.3313C182.903 3.17023 184.228 4.4975 185.063 6.12707C185.472 6.94194 185.755 7.81394 185.903 8.71347C186.066 9.69225 186.157 10.6816 186.175 11.6736C186.18 12.1178 186.18 12.595 186.18 13.0699C186.192 13.6581 186.192 14.2179 186.192 14.7824V47.6099C186.192 48.1798 186.192 48.7358 186.18 49.2964C186.18 49.8065 186.18 50.2738 186.174 50.7547C186.156 51.7291 186.066 52.7008 185.906 53.662C185.759 54.5734 185.474 55.4569 185.059 56.2815C184.645 57.0852 184.108 57.8188 183.466 58.455C182.825 59.1041 182.084 59.6456 181.271 60.0589C180.447 60.4761 179.565 60.7668 178.654 60.9212C177.685 61.0796 176.705 61.1651 175.723 61.1771C175.263 61.1877 174.782 61.1939 174.315 61.1939L172.615 61.197L13.1094 61.1939Z" fill="black"/>
<path d="M38.7164 31.6672C38.7332 30.358 39.081 29.0744 39.7273 27.9357C40.3735 26.797 41.2974 25.8403 42.4127 25.1545C41.7042 24.1426 40.7694 23.3098 39.6827 22.7223C38.5959 22.1348 37.3872 21.8088 36.1524 21.7701C33.5185 21.4936 30.9649 23.3462 29.6227 23.3462C28.2545 23.3462 26.188 21.7976 23.9626 21.8434C22.5232 21.8899 21.1204 22.3084 19.8908 23.0583C18.6613 23.8081 17.647 24.8637 16.9466 26.1221C13.9131 31.3743 16.1758 39.0932 19.0818 43.3386C20.5356 45.4175 22.2348 47.7396 24.4581 47.6573C26.6338 47.5671 27.4464 46.2699 30.0726 46.2699C32.6744 46.2699 33.4368 47.6573 35.7052 47.6049C38.0398 47.567 39.5107 45.5168 40.9136 43.4183C41.9582 41.937 42.7621 40.2999 43.2953 38.5675C41.939 37.9939 40.7815 37.0336 39.9673 35.8066C39.153 34.5795 38.7179 33.1399 38.7164 31.6672Z" fill="white"/>
<path d="M34.4325 18.9779C35.7054 17.4498 36.3325 15.4857 36.1806 13.5027C34.2359 13.707 32.4395 14.6364 31.1494 16.1059C30.5186 16.8238 30.0355 17.6589 29.7277 18.5636C29.4199 19.4683 29.2934 20.4248 29.3554 21.3784C30.3282 21.3884 31.2905 21.1776 32.1699 20.7618C33.0493 20.346 33.8229 19.736 34.4325 18.9779Z" fill="white"/>
<path d="M66.2178 42.3943H58.7932L57.0102 47.6591H53.8655L60.8979 28.1809H64.1652L71.1976 47.6591H67.9992L66.2178 42.3943ZM59.5622 39.9649H65.4474L62.5462 31.4206H62.465L59.5622 39.9649Z" fill="white"/>
<path d="M86.3842 40.5594C86.3842 44.9724 84.0222 47.8078 80.4577 47.8078C79.5548 47.855 78.6568 47.647 77.8666 47.2076C77.0763 46.7682 76.4258 46.1151 75.9895 45.3232H75.9221V52.3571H73.0071V33.458H75.8287V35.82H75.8823C76.3387 35.0319 77.0002 34.3822 77.7964 33.9401C78.5926 33.498 79.4938 33.2801 80.4041 33.3094C84.0083 33.3094 86.3842 36.1585 86.3842 40.5594ZM83.388 40.5594C83.388 37.6842 81.9022 35.794 79.6351 35.794C77.4079 35.794 75.9098 37.724 75.9098 40.5594C75.9098 43.4207 77.4079 45.337 79.6351 45.337C81.9022 45.337 83.388 43.4606 83.388 40.5594Z" fill="white"/>
<path d="M102.016 40.5594C102.016 44.9724 99.654 47.8077 96.0896 47.8077C95.1866 47.855 94.2886 47.647 93.4984 47.2076C92.7082 46.7682 92.0577 46.1151 91.6214 45.3232H91.5539V52.3571H88.6389V33.458H91.4605V35.82H91.5141C91.9704 35.0319 92.6319 34.3822 93.4282 33.9401C94.2244 33.498 95.1256 33.2801 96.0359 33.3094C99.6402 33.3094 102.016 36.1585 102.016 40.5594ZM99.0199 40.5594C99.0199 37.6842 97.534 35.794 95.267 35.794C93.0398 35.794 91.5417 37.724 91.5417 40.5594C91.5417 43.4207 93.0398 45.337 95.267 45.337C97.534 45.337 99.0199 43.4605 99.0199 40.5594Z" fill="white"/>
<path d="M112.346 42.232C112.562 44.1636 114.439 45.4318 117.003 45.4318C119.46 45.4318 121.228 44.1635 121.228 42.4219C121.228 40.91 120.162 40.0047 117.637 39.3843L115.113 38.7762C111.536 37.9123 109.876 36.2396 109.876 33.5252C109.876 30.1645 112.804 27.8561 116.963 27.8561C121.079 27.8561 123.901 30.1645 123.996 33.5252H121.053C120.877 31.5814 119.27 30.4081 116.922 30.4081C114.574 30.4081 112.967 31.5952 112.967 33.3231C112.967 34.7001 113.993 35.5104 116.504 36.1308L118.65 36.6577C122.646 37.6028 124.307 39.2082 124.307 42.0572C124.307 45.7013 121.404 47.9837 116.787 47.9837C112.467 47.9837 109.551 45.7549 109.362 42.2318L112.346 42.232Z" fill="white"/>
<path d="M130.597 30.0972V33.4579H133.298V35.7663H130.597V43.5953C130.597 44.8115 131.138 45.3783 132.325 45.3783C132.646 45.3727 132.966 45.3502 133.284 45.3108V47.6054C132.75 47.7052 132.208 47.7503 131.665 47.7402C128.79 47.7402 127.668 46.6603 127.668 43.9062V35.7663H125.604V33.4579H127.668V30.0972H130.597Z" fill="white"/>
<path d="M134.861 40.5593C134.861 36.0911 137.493 33.2833 141.597 33.2833C145.714 33.2833 148.334 36.091 148.334 40.5593C148.334 45.0397 145.728 47.8352 141.597 47.8352C137.467 47.8352 134.861 45.0397 134.861 40.5593ZM145.363 40.5593C145.363 37.4942 143.959 35.6851 141.597 35.6851C139.235 35.6851 137.832 37.508 137.832 40.5593C137.832 43.6366 139.235 45.4319 141.597 45.4319C143.959 45.4319 145.363 43.6366 145.363 40.5593Z" fill="white"/>
<path d="M150.737 33.458H153.518V35.8751H153.585C153.773 35.1202 154.215 34.4531 154.838 33.9858C155.46 33.5186 156.224 33.2797 157.001 33.3094C157.337 33.3082 157.672 33.3447 158 33.4182V36.1447C157.576 36.0151 157.133 35.9556 156.69 35.9686C156.266 35.9514 155.844 36.0261 155.452 36.1875C155.061 36.3488 154.708 36.5931 154.42 36.9035C154.131 37.2139 153.913 37.5831 153.781 37.9857C153.648 38.3883 153.604 38.8148 153.652 39.2359V47.6591H150.737V33.458Z" fill="white"/>
<path d="M171.438 43.488C171.046 46.066 168.536 47.8352 165.323 47.8352C161.192 47.8352 158.628 45.0673 158.628 40.6267C158.628 36.1722 161.206 33.2833 165.201 33.2833C169.13 33.2833 171.601 35.9823 171.601 40.2881V41.2869H161.571V41.463C161.524 41.9857 161.59 42.5122 161.763 43.0076C161.935 43.503 162.212 43.956 162.573 44.3364C162.934 44.7168 163.372 45.0161 163.858 45.2142C164.344 45.4123 164.867 45.5048 165.391 45.4855C166.08 45.55 166.771 45.3905 167.362 45.0306C167.953 44.6707 168.412 44.1297 168.67 43.488H171.438ZM161.584 39.2496H168.684C168.71 38.7797 168.639 38.3094 168.475 37.8683C168.311 37.4272 168.057 37.0248 167.73 36.6864C167.403 36.348 167.01 36.0808 166.574 35.9016C166.139 35.7225 165.672 35.6352 165.201 35.6453C164.726 35.6425 164.256 35.7337 163.816 35.9137C163.377 36.0936 162.978 36.3588 162.642 36.6939C162.305 37.029 162.039 37.4274 161.857 37.866C161.676 38.3047 161.583 38.7749 161.584 39.2496Z" fill="white"/>
<path d="M59.1983 13.5195C59.8094 13.4757 60.4226 13.568 60.9938 13.7899C61.5649 14.0117 62.0797 14.3575 62.501 14.8024C62.9222 15.2473 63.2395 15.7801 63.43 16.3625C63.6204 16.9448 63.6792 17.5622 63.6021 18.17C63.6021 21.1601 61.9861 22.8788 59.1983 22.8788H55.8176V13.5195H59.1983ZM57.2713 21.5552H59.0359C59.4726 21.5813 59.9096 21.5097 60.3151 21.3456C60.7207 21.1815 61.0845 20.9291 61.3802 20.6066C61.6758 20.2842 61.8959 19.8999 62.0243 19.4817C62.1527 19.0635 62.1862 18.6219 62.1224 18.1891C62.1816 17.758 62.1446 17.3192 62.0143 16.904C61.8839 16.4889 61.6633 16.1077 61.3683 15.7879C61.0733 15.468 60.7112 15.2173 60.308 15.0538C59.9048 14.8903 59.4704 14.818 59.0359 14.8422H57.2713V21.5552Z" fill="white"/>
<path d="M65.2435 19.3441C65.1991 18.8799 65.2522 18.4116 65.3994 17.9692C65.5466 17.5267 65.7847 17.1199 66.0983 16.7749C66.4119 16.4298 66.7942 16.1541 67.2206 15.9655C67.647 15.7768 68.1081 15.6794 68.5744 15.6794C69.0407 15.6794 69.5018 15.7768 69.9282 15.9655C70.3546 16.1541 70.7369 16.4298 71.0505 16.7749C71.3642 17.1199 71.6022 17.5267 71.7494 17.9692C71.8966 18.4116 71.9497 18.8799 71.9053 19.3441C71.9505 19.8087 71.898 20.2777 71.7512 20.7208C71.6044 21.164 71.3665 21.5715 71.0528 21.9173C70.7392 22.263 70.3566 22.5393 69.9298 22.7283C69.5029 22.9174 69.0412 23.0151 68.5744 23.0151C68.1076 23.0151 67.6459 22.9174 67.2191 22.7283C66.7922 22.5393 66.4097 22.263 66.096 21.9173C65.7823 21.5715 65.5444 21.164 65.3976 20.7208C65.2508 20.2777 65.1983 19.8087 65.2435 19.3441ZM70.4715 19.3441C70.4715 17.8131 69.7837 16.9177 68.5767 16.9177C67.3651 16.9177 66.6835 17.8131 66.6835 19.3441C66.6835 20.8874 67.3651 21.7758 68.5767 21.7758C69.7838 21.7758 70.4715 20.8812 70.4715 19.3441Z" fill="white"/>
<path d="M80.7602 22.8787H79.3142L77.8544 17.6768H77.7442L76.2905 22.8787H74.8583L72.9114 15.8157H74.3252L75.5905 21.2052H75.6946L77.1468 15.8157H78.484L79.9361 21.2052H80.0464L81.3055 15.8157H82.6995L80.7602 22.8787Z" fill="white"/>
<path d="M84.3382 15.8155H85.68V16.9376H85.7841C85.9609 16.5346 86.2589 16.1968 86.6367 15.9712C87.0145 15.7456 87.4533 15.6436 87.8919 15.6792C88.2356 15.6534 88.5806 15.7052 88.9016 15.8308C89.2225 15.9565 89.511 16.1527 89.7458 16.405C89.9806 16.6573 90.1556 16.9591 90.2579 17.2883C90.3601 17.6174 90.387 17.9653 90.3366 18.3062V22.8785H88.9427V18.6562C88.9427 17.5212 88.4495 16.9567 87.4186 16.9567C87.1852 16.9459 86.9523 16.9856 86.7358 17.0731C86.5192 17.1607 86.3242 17.2941 86.164 17.4641C86.0038 17.6341 85.8822 17.8367 85.8077 18.0581C85.7331 18.2795 85.7073 18.5143 85.7321 18.7466V22.8786H84.3381L84.3382 15.8155Z" fill="white"/>
<path d="M92.5569 13.0585H93.9508V22.8787H92.5569V13.0585Z" fill="white"/>
<path d="M95.889 19.3441C95.8446 18.8799 95.8978 18.4115 96.045 17.9691C96.1922 17.5266 96.4303 17.1198 96.744 16.7747C97.0576 16.4297 97.4399 16.154 97.8664 15.9653C98.2928 15.7767 98.754 15.6792 99.2203 15.6792C99.6866 15.6792 100.148 15.7767 100.574 15.9653C101.001 16.154 101.383 16.4297 101.696 16.7747C102.01 17.1198 102.248 17.5266 102.395 17.9691C102.543 18.4115 102.596 18.8799 102.551 19.3441C102.597 19.8087 102.544 20.2777 102.397 20.7208C102.25 21.164 102.012 21.5715 101.699 21.9172C101.385 22.263 101.002 22.5392 100.576 22.7283C100.149 22.9173 99.6871 23.015 99.2203 23.015C98.7534 23.015 98.2917 22.9173 97.8649 22.7283C97.438 22.5392 97.0554 22.263 96.7417 21.9172C96.428 21.5715 96.19 21.164 96.0432 20.7208C95.8963 20.2777 95.8438 19.8087 95.889 19.3441ZM101.117 19.3441C101.117 17.813 100.429 16.9177 99.2222 16.9177C98.0105 16.9177 97.3289 17.813 97.3289 19.3441C97.3289 20.8873 98.0106 21.7758 99.2222 21.7758C100.429 21.7758 101.117 20.8812 101.117 19.3441Z" fill="white"/>
<path d="M104.018 20.8812C104.018 19.6098 104.964 18.8769 106.645 18.7727L108.558 18.6624V18.0528C108.558 17.3068 108.065 16.8856 107.112 16.8856C106.334 16.8856 105.795 17.1713 105.64 17.6706H104.29C104.433 16.4574 105.574 15.6793 107.176 15.6793C108.947 15.6793 109.946 16.5608 109.946 18.0528V22.8787H108.604V21.8861H108.494C108.27 22.2421 107.955 22.5324 107.583 22.7272C107.21 22.922 106.792 23.0145 106.372 22.995C106.076 23.0259 105.776 22.9943 105.492 22.9022C105.209 22.8101 104.948 22.6596 104.726 22.4605C104.504 22.2613 104.326 22.0179 104.204 21.7459C104.083 21.4739 104.019 21.1793 104.018 20.8812ZM108.558 20.2777V19.6872L106.833 19.7975C105.86 19.8626 105.419 20.1934 105.419 20.8161C105.419 21.4518 105.971 21.8217 106.729 21.8217C106.951 21.8442 107.176 21.8218 107.389 21.7558C107.602 21.6897 107.8 21.5815 107.971 21.4374C108.141 21.2934 108.281 21.1165 108.382 20.9172C108.483 20.718 108.543 20.5005 108.558 20.2777Z" fill="white"/>
<path d="M111.778 19.3442C111.778 17.1123 112.926 15.6985 114.71 15.6985C115.152 15.6782 115.59 15.7839 115.973 16.0033C116.357 16.2228 116.67 16.5468 116.876 16.9377H116.98V13.0585H118.374V22.8787H117.039V21.7628H116.928C116.706 22.151 116.382 22.471 115.991 22.6883C115.6 22.9055 115.157 23.0116 114.71 22.9951C112.914 22.9952 111.778 21.5813 111.778 19.3442ZM113.218 19.3442C113.218 20.8422 113.925 21.7437 115.106 21.7437C116.28 21.7437 117.006 20.8292 117.006 19.3503C117.006 17.8782 116.273 16.9507 115.106 16.9507C113.932 16.9507 113.218 17.8583 113.218 19.3442Z" fill="white"/>
<path d="M124.141 19.3441C124.097 18.8799 124.15 18.4116 124.297 17.9692C124.444 17.5267 124.682 17.1199 124.996 16.7749C125.309 16.4298 125.692 16.1541 126.118 15.9655C126.544 15.7768 127.005 15.6794 127.472 15.6794C127.938 15.6794 128.399 15.7768 128.826 15.9655C129.252 16.1541 129.634 16.4298 129.948 16.7749C130.262 17.1199 130.5 17.5267 130.647 17.9692C130.794 18.4116 130.847 18.8799 130.803 19.3441C130.848 19.8087 130.795 20.2777 130.649 20.7208C130.502 21.164 130.264 21.5715 129.95 21.9173C129.637 22.263 129.254 22.5393 128.827 22.7283C128.4 22.9174 127.939 23.0151 127.472 23.0151C127.005 23.0151 126.543 22.9174 126.116 22.7283C125.69 22.5393 125.307 22.263 124.993 21.9173C124.68 21.5715 124.442 21.164 124.295 20.7208C124.148 20.2777 124.096 19.8087 124.141 19.3441ZM129.369 19.3441C129.369 17.8131 128.681 16.9177 127.474 16.9177C126.262 16.9177 125.581 17.8131 125.581 19.3441C125.581 20.8874 126.262 21.7758 127.474 21.7758C128.681 21.7758 129.369 20.8812 129.369 19.3441Z" fill="white"/>
<path d="M132.673 15.8155H134.015V16.9376H134.119C134.296 16.5346 134.594 16.1968 134.972 15.9712C135.349 15.7456 135.788 15.6436 136.227 15.6792C136.57 15.6534 136.915 15.7052 137.236 15.8308C137.557 15.9565 137.846 16.1527 138.081 16.405C138.315 16.6573 138.49 16.9591 138.593 17.2883C138.695 17.6174 138.722 17.9653 138.671 18.3062V22.8785H137.278V18.6562C137.278 17.5212 136.784 16.9567 135.753 16.9567C135.52 16.9459 135.287 16.9856 135.071 17.0731C134.854 17.1607 134.659 17.2941 134.499 17.4641C134.339 17.6341 134.217 17.8367 134.143 18.0581C134.068 18.2795 134.042 18.5143 134.067 18.7466V22.8786H132.673V15.8155Z" fill="white"/>
<path d="M146.548 14.0571V15.8478H148.078V17.0219H146.548V20.6538C146.548 21.3936 146.853 21.7176 147.547 21.7176C147.724 21.717 147.902 21.7063 148.078 21.6854V22.8465C147.828 22.8913 147.574 22.9151 147.32 22.9177C145.77 22.9177 145.153 22.3724 145.153 21.0107V17.0218H144.031V15.8477H145.153V14.0571H146.548Z" fill="white"/>
<path d="M149.984 13.0585H151.365V16.9507H151.475C151.661 16.544 151.967 16.2042 152.352 15.9778C152.738 15.7514 153.184 15.6493 153.629 15.6855C153.971 15.6669 154.313 15.7239 154.63 15.8526C154.947 15.9813 155.232 16.1784 155.465 16.4299C155.697 16.6814 155.871 16.9811 155.974 17.3076C156.077 17.634 156.107 17.9793 156.062 18.3186V22.8787H154.666V18.6625C154.666 17.5343 154.141 16.963 153.156 16.963C152.916 16.9433 152.675 16.9762 152.45 17.0595C152.224 17.1427 152.02 17.2742 151.85 17.4447C151.681 17.6153 151.551 17.8208 151.469 18.0469C151.388 18.273 151.356 18.5142 151.378 18.7536V22.8787H149.984V13.0585Z" fill="white"/>
<path d="M164.189 20.9716C164 21.6171 163.59 22.1755 163.03 22.549C162.471 22.9226 161.798 23.0875 161.129 23.015C160.664 23.0272 160.201 22.9381 159.774 22.7538C159.346 22.5694 158.964 22.2943 158.654 21.9474C158.343 21.6005 158.112 21.1903 157.976 20.7451C157.84 20.2999 157.803 19.8305 157.866 19.3693C157.804 18.9068 157.842 18.4363 157.978 17.9898C158.114 17.5433 158.344 17.1311 158.653 16.7812C158.961 16.4313 159.342 16.1519 159.768 15.9617C160.194 15.7716 160.656 15.6753 161.123 15.6793C163.088 15.6793 164.274 17.0219 164.274 19.2399V19.7263H159.286V19.8044C159.264 20.0636 159.297 20.3245 159.382 20.5703C159.467 20.8162 159.602 21.0416 159.779 21.2321C159.956 21.4226 160.171 21.574 160.41 21.6766C160.649 21.7792 160.907 21.8307 161.167 21.8278C161.501 21.8678 161.838 21.8078 162.138 21.6553C162.437 21.5028 162.684 21.2648 162.848 20.9715L164.189 20.9716ZM159.286 18.6953H162.854C162.871 18.4583 162.839 18.2202 162.759 17.9963C162.679 17.7725 162.553 17.5678 162.39 17.3955C162.226 17.2232 162.028 17.087 161.808 16.9958C161.589 16.9045 161.353 16.8602 161.115 16.8656C160.874 16.8626 160.635 16.9079 160.411 16.9988C160.188 17.0896 159.985 17.2243 159.815 17.3948C159.644 17.5654 159.51 17.7683 159.419 17.9916C159.328 18.215 159.283 18.4543 159.286 18.6953Z" fill="white"/>
</g>
<defs>
<clipPath id="clip0_6_14">
<rect width="186" height="61" fill="white" transform="translate(0.923096 0.884521)"/>
</clipPath>
</defs>
</svg>
