<svg width="115" height="21" viewBox="0 0 115 21" fill="none" xmlns="http://www.w3.org/2000/svg">
<g clip-path="url(#clip0_6_138)">
<path fill-rule="evenodd" clip-rule="evenodd" d="M15.4202 19.4747V8.92307H15.2836L10.2819 17.4144H9.18882L4.18663 8.92307H4.05054V19.4747H0.251221V1.29419H3.99542L9.8444 11.2615H9.89952L15.7212 1.29419H19.3561V19.4747H15.4202ZM30.3648 15.9666V14.6643C29.7849 14.1657 28.6249 13.695 27.244 13.695C25.0622 13.695 24.2612 14.5535 24.2612 15.5788C24.2612 16.7154 25.1729 17.4631 26.7192 17.4631C28.6527 17.4631 29.9507 16.3549 30.3648 15.9666ZM21.5272 7.3212C22.7979 6.68368 25.2285 5.8803 27.824 5.8803C30.9175 5.8803 34.0383 6.93342 34.0383 9.98156V17.2139C34.0383 17.8236 34.0934 18.8211 34.4251 19.8464H30.7794C30.6414 19.4308 30.5307 18.7933 30.4478 18.2948C29.4537 19.264 28.2659 20.1786 25.9187 20.1786C22.6603 20.1786 20.5883 18.2114 20.5883 15.5788C20.5883 13.057 22.7423 11.0903 26.4987 11.0903C27.9342 11.0903 29.3707 11.4229 30.3648 12.1985V10.8405C30.3648 9.42695 29.1503 8.78942 27.5211 8.78942C25.8085 8.78942 23.654 9.53817 22.6603 10.0645L21.5272 7.3212ZM46.1518 10.6186C45.047 9.53865 43.7768 9.01185 42.6998 9.01185C40.7111 9.01185 39.1093 10.564 39.1093 13.0297C39.1093 15.4959 40.8214 17.1588 42.8379 17.1588C44.1915 17.1588 45.4338 16.3271 46.4557 15.3296L48.7205 17.6017C48.14 18.2943 45.8758 20.262 42.4233 20.262C38.5293 20.262 35.188 17.3807 35.188 13.0297C35.188 8.70699 38.4186 5.8803 42.4233 5.8803C44.4949 5.8803 46.6767 6.60124 48.4439 8.18019L46.1518 10.6191M60.8457 6.32418L63.2764 14.9696H63.4417L65.5406 6.32418H69.3243L65.0436 19.8464H61.5364L59.1883 11.5615H59.0224L56.6479 19.8464H53.1681L48.8868 6.32418H52.754L54.908 14.9696H55.0734L57.504 6.32418H60.8457ZM76.104 17.2139C78.3966 17.2139 79.7224 15.274 79.7224 13.0292C79.7224 10.8132 78.3966 8.95624 76.104 8.95624C73.8675 8.95624 72.5691 10.8132 72.5691 13.0292C72.5691 15.274 73.8675 17.2144 76.104 17.2144M76.104 5.87981C80.4955 5.87981 83.4778 9.01136 83.4778 13.0292C83.4778 17.048 80.4955 20.2615 76.104 20.2615C71.7408 20.2615 68.7853 17.048 68.7853 13.0292C68.7853 9.01136 71.7408 5.87981 76.104 5.87981ZM88.2932 11.1454V19.8464H84.5924V10.1479C84.5924 9.01136 84.4816 7.8202 84.2056 6.32369H87.5747C87.7013 6.99297 87.7936 7.66829 87.8512 8.34701C88.6795 6.96171 89.6463 5.8803 91.3862 5.8803C92.0764 5.8803 92.988 6.07444 93.4578 6.43491L92.4359 9.81523C92.0213 9.64938 91.1101 9.42744 90.613 9.42744C89.6467 9.42744 89.0385 10.1752 88.2932 11.1454Z" fill="black"/>
<path fill-rule="evenodd" clip-rule="evenodd" d="M94.9596 19.8464H98.6755V0.44934H94.9596V19.8464ZM103.93 13.0297C103.93 15.4954 105.317 17.1305 107.064 17.1305C108.673 17.1305 109.865 16.1329 110.336 15.6344V10.5357C109.366 9.59327 108.174 9.01184 107.064 9.01184C105.289 9.01184 103.93 10.564 103.93 13.0297ZM110.863 19.8464C110.78 19.3752 110.724 18.7099 110.696 18.2392C109.865 19.1816 108.395 20.2342 106.509 20.2342C102.905 20.2342 99.9369 17.3807 99.9369 13.0297C99.9369 8.70698 102.932 5.88029 106.509 5.88029C107.84 5.88029 109.227 6.51782 110.336 7.54362V0.448364H114.052V15.9944C114.052 17.1031 114.052 18.2665 114.357 19.8459H110.863" fill="black"/>
</g>
<defs>
<clipPath id="clip0_6_138">
<rect width="114.141" height="19.999" fill="white" transform="translate(0.251221 0.38501)"/>
</clipPath>
</defs>
</svg>
