<svg width="119" height="21" viewBox="0 0 119 21" fill="none" xmlns="http://www.w3.org/2000/svg">
<g clip-path="url(#clip0_6_134)">
<path d="M28.0793 18.1345C28.0793 18.7405 27.9433 19.3885 27.4773 19.8845H39.5793V13.8085C38.7393 14.1945 37.7033 14.3845 36.7033 14.3845H34.0793V12.3845H35.4553C36.2033 12.3845 36.8673 12.4565 37.5793 12.7605V7.50852C36.8673 7.81252 36.2033 7.88452 35.4553 7.88452H34.0793V5.63452H36.7033C37.7033 5.63452 38.7393 5.82452 39.5793 6.20852V0.384521H27.4553C27.9213 0.788521 28.0793 1.52852 28.0793 2.13452V18.1345ZM17.5793 7.88452V5.88452H17.8329C18.5177 5.88452 19.3123 5.99452 19.8293 6.27052V0.384521H11.3345V19.8845H18.2043C17.7383 19.4805 17.5793 18.7405 17.5793 18.1345V12.6345H20.8293V18.1345C20.8293 18.7405 20.6713 19.4805 20.2043 19.8845H27.0793V0.384521H20.8293V7.88452H17.5793ZM2.60715 5.88452H4.07935V18.1345C4.07935 18.7405 3.92055 19.4805 3.45435 19.8845H10.3293V0.384521H0.579346V6.27052C1.12755 5.99452 1.92235 5.88452 2.60715 5.88452ZM106.073 7.88452H98.5911C98.2091 7.88452 97.7691 7.84852 97.3291 7.70852V12.5605C97.7691 12.4225 98.2091 12.3845 98.5911 12.3845H100.579V13.8845C100.333 14.1045 99.7971 14.2265 99.2491 14.2265C96.9751 14.2265 95.3031 12.4325 95.3031 10.2605C95.3031 8.08452 96.9291 6.13452 99.2031 6.13452C100.579 6.13452 102.131 6.58452 103.829 7.38652V0.384521H98.8291C93.4311 0.384521 89.1291 4.56252 89.1291 10.2105C89.1291 15.7405 93.4611 20.3845 99.0791 20.3845C102.175 20.3845 105.059 19.1245 106.565 17.5845C106.265 17.0325 106.073 16.4845 106.073 15.8225V7.88452ZM115.703 5.63452C116.703 5.63452 117.739 5.82452 118.579 6.20852V0.384521H106.455C106.921 0.788521 107.079 1.52852 107.079 2.13452V18.1345C107.079 18.7405 106.943 19.3885 106.477 19.8845H118.579V13.8085C117.739 14.1945 116.703 14.3845 115.703 14.3845H113.079V12.3845H114.455C115.203 12.3845 115.867 12.4565 116.579 12.7605V7.50852C115.867 7.81252 115.203 7.88452 114.455 7.88452H113.079V5.63452H115.703ZM86.7031 11.0845C87.7451 9.93452 88.3791 8.42652 88.3791 6.89252C88.3791 2.40052 85.0351 0.386521 81.4451 0.386521L73.7071 0.384521C74.1711 0.788521 74.3311 1.52252 74.3311 2.12652L74.3291 18.1345C74.3291 18.7365 74.1671 19.3925 73.7031 19.8845H81.1511C80.6851 19.3925 80.5791 18.7045 80.5791 18.1345V14.1665C82.7151 14.5725 84.1371 16.5545 84.1371 18.1425C84.1371 18.7445 83.9951 19.3925 83.5311 19.8845H90.9591C90.4931 19.3925 90.3731 18.6785 90.3291 18.0765C90.0791 14.6345 88.8951 12.2065 86.7031 11.0845ZM80.5791 9.16052V5.60852C81.5791 5.60852 82.8551 5.88452 82.8551 7.38452C82.8551 8.88452 81.5791 9.16052 80.5791 9.16052ZM53.3291 11.1345L51.3291 5.63452H54.3291L56.3291 0.384521H42.3291C42.7671 0.826521 43.1771 1.32052 43.4791 1.89852L51.2231 19.8845H55.4531L61.8291 4.88452V18.1345C61.8251 18.7565 61.6711 19.4805 61.2031 19.8845H73.3291V13.8085C72.4991 14.1945 71.4551 14.6345 70.4551 14.6345H67.8291V12.3845H69.2031C69.9551 12.3845 70.6171 12.4565 71.3291 12.7605V7.50852C70.6171 7.81252 69.9551 7.88452 69.2031 7.88452H67.8291V5.88452H70.4551C71.4551 5.88452 72.4991 6.07452 73.3291 6.46052V0.384521H57.3291L53.3291 11.1345Z" fill="black"/>
</g>
<defs>
<clipPath id="clip0_6_134">
<rect width="118" height="20" fill="white" transform="translate(0.579346 0.384521)"/>
</clipPath>
</defs>
</svg>
